+ filenameToUse=/home/horvathandras/vatic/vatic/public/videouploads/DJI_0068_30m_regi_disznoturas_homokmegy_20180603_napos_kalaszos_T4.avi
+ filenameNoDot=DJI_0068_30m_regi_disznoturas_homokmegy_20180603_napos_kalaszos_T4
+ FullUploadPath=/home/horvathandras/vatic/vatic/public/videouploads/DJI_0068_30m_regi_disznoturas_homokmegy_20180603_napos_kalaszos_T4.avi
+ VideoDataDir=/home/horvathandras/vatic/vatic/videos
+ AvailableObjectTypes='PozitívROI NegatívROI Túrás ~Friss ~1-2Hetes ~Régebbi ~Egyéb1 ~Egyéb2 ~Egyéb3 Rágás ~Friss ~1-2Hetes ~Régebbi ~Egyéb1 ~Egyéb2 ~Egyéb3 Törés ~Friss ~1-2Hetes ~Régebbi ~Egyéb1 ~Egyéb2 ~Egyéb3 Taposás ~Friss ~1-2Hetes ~Régebbi ~Egyéb1 ~Egyéb2 ~Egyéb3 EgészségesNövény Egyéb1 Egyéb2 Egyéb3 Egyéb4 Egyéb5 Bizonytalan Művelőút Gktaposás Vetőhiba Széldöntés Jégkár Belvíz Aszály Erózió EgyszikűGyom KétszikűGyom EgyébNövvédelmiPR'
++ dirname /home/horvathandras/vatic/vatic/vatic_publisher.sh
+ cd /home/horvathandras/vatic/vatic
+ touch /home/horvathandras/vatic/vatic/public/videouploads/DJI_0068_30m_regi_disznoturas_homokmegy_20180603_napos_kalaszos_T4.avi
+ chmod 744 /home/horvathandras/vatic/vatic/public/videouploads/DJI_0068_30m_regi_disznoturas_homokmegy_20180603_napos_kalaszos_T4.avi
+ mkdir /home/horvathandras/vatic/vatic/videos/DJI_0068_30m_regi_disznoturas_homokmegy_20180603_napos_kalaszos_T4
+ turkic extract /home/horvathandras/vatic/vatic/public/videouploads/DJI_0068_30m_regi_disznoturas_homokmegy_20180603_napos_kalaszos_T4.avi /home/horvathandras/vatic/vatic/videos/DJI_0068_30m_regi_disznoturas_homokmegy_20180603_napos_kalaszos_T4 --no-resize
ffmpeg version 2.8.14-0ubuntu0.16.04.1 Copyright (c) 2000-2018 the FFmpeg developers
  built with gcc 5.4.0 (Ubuntu 5.4.0-6ubuntu1~16.04.9) 20160609
  configuration: --prefix=/usr --extra-version=0ubuntu0.16.04.1 --build-suffix=-ffmpeg --toolchain=hardened --libdir=/usr/lib/x86_64-linux-gnu --incdir=/usr/include/x86_64-linux-gnu --cc=cc --cxx=g++ --enable-gpl --enable-shared --disable-stripping --disable-decoder=libopenjpeg --disable-decoder=libschroedinger --enable-avresample --enable-avisynth --enable-gnutls --enable-ladspa --enable-libass --enable-libbluray --enable-libbs2b --enable-libcaca --enable-libcdio --enable-libflite --enable-libfontconfig --enable-libfreetype --enable-libfribidi --enable-libgme --enable-libgsm --enable-libmodplug --enable-libmp3lame --enable-libopenjpeg --enable-libopus --enable-libpulse --enable-librtmp --enable-libschroedinger --enable-libshine --enable-libsnappy --enable-libsoxr --enable-libspeex --enable-libssh --enable-libtheora --enable-libtwolame --enable-libvorbis --enable-libvpx --enable-libwavpack --enable-libwebp --enable-libx265 --enable-libxvid --enable-libzvbi --enable-openal --enable-opengl --enable-x11grab --enable-libdc1394 --enable-libiec61883 --enable-libzmq --enable-frei0r --enable-libx264 --enable-libopencv
  libavutil      54. 31.100 / 54. 31.100
  libavcodec     56. 60.100 / 56. 60.100
  libavformat    56. 40.101 / 56. 40.101
  libavdevice    56.  4.100 / 56.  4.100
  libavfilter     5. 40.101 /  5. 40.101
  libavresample   2.  1.  0 /  2.  1.  0
  libswscale      3.  1.101 /  3.  1.101
  libswresample   1.  2.101 /  1.  2.101
  libpostproc    53.  3.100 / 53.  3.100
Input #0, mov,mp4,m4a,3gp,3g2,mj2, from '/home/horvathandras/vatic/vatic/public/videouploads/DJI_0068_30m_regi_disznoturas_homokmegy_20180603_napos_kalaszos_T4.avi':
  Metadata:
    major_brand     : qt  
    minor_version   : 537986816
    compatible_brands: qt  
    creation_time   : 2018-06-03 08:59:17
    location        : +46.517440+19.171967+29.800
    location-{    : +46.517440+19.171967+29.800
    comment         : DE=None, Mode=P, DSW=0001
  Duration: 00:00:27.06, start: 0.000000, bitrate: 101162 kb/s
    Stream #0:0(eng): Video: h264 (High) (avc1 / 0x31637661), yuv420p(tv, bt709), 4096x2160 [SAR 1:1 DAR 256:135], 101011 kb/s, 50 fps, 50 tbr, 50k tbn, 100 tbc (default)
    Metadata:
      creation_time   : 2018-06-03 08:59:17
      handler_name    : DJI.AVC
      encoder         : AVC encoder
    Stream #0:1(eng): Data: none (priv / 0x76697270), 141 kb/s
    Metadata:
      creation_time   : 2018-06-03 08:59:17
      handler_name    : DJI.Meta
Please use -b:a or -b:v, -b is ambiguous
[swscaler @ 0x25fe340] deprecated pixel format used, make sure you did set range correctly
Output #0, image2, to '/tmp/pyvision-ffmpeg-424100016/%d.jpg':
  Metadata:
    major_brand     : qt  
    minor_version   : 537986816
    compatible_brands: qt  
    comment         : DE=None, Mode=P, DSW=0001
    location        : +46.517440+19.171967+29.800
    location-{    : +46.517440+19.171967+29.800
    encoder         : Lavf56.40.101
    Stream #0:0(eng): Video: mjpeg, yuvj420p(pc), 4096x2160 [SAR 1:1 DAR 256:135], q=2-31, 10000 kb/s, 50 fps, 50 tbn, 50 tbc (default)
    Metadata:
      creation_time   : 2018-06-03 08:59:17
      handler_name    : DJI.AVC
      encoder         : Lavc56.60.100 mjpeg
Stream mapping:
  Stream #0:0 -> #0:0 (h264 (native) -> mjpeg (native))
Press [q] to stop, [?] for help
frame=    1 fps=0.6 q=18.3 size=N/A time=00:00:00.02 bitrate=N/A    frame=    3 fps=1.3 q=22.6 size=N/A time=00:00:00.06 bitrate=N/A    frame=    5 fps=1.7 q=24.8 size=N/A time=00:00:00.10 bitrate=N/A    frame=    7 fps=1.9 q=24.8 size=N/A time=00:00:00.14 bitrate=N/A    frame=    9 fps=2.1 q=24.8 size=N/A time=00:00:00.18 bitrate=N/A    frame=   11 fps=2.3 q=24.8 size=N/A time=00:00:00.22 bitrate=N/A    frame=   13 fps=2.3 q=24.8 size=N/A time=00:00:00.26 bitrate=N/A    frame=   15 fps=2.5 q=24.8 size=N/A time=00:00:00.30 bitrate=N/A    frame=   17 fps=2.5 q=24.8 size=N/A time=00:00:00.34 bitrate=N/A    frame=   19 fps=2.6 q=24.8 size=N/A time=00:00:00.38 bitrate=N/A    frame=   21 fps=2.7 q=24.8 size=N/A time=00:00:00.42 bitrate=N/A    frame=   23 fps=2.8 q=24.8 size=N/A time=00:00:00.46 bitrate=N/A    frame=   25 fps=2.8 q=24.8 size=N/A time=00:00:00.50 bitrate=N/A    frame=   27 fps=2.8 q=24.8 size=N/A time=00:00:00.54 bitrate=N/A    frame=   29 fps=2.8 q=24.8 size=N/A time=00:00:00.58 bitrate=N/A    frame=   31 fps=2.8 q=24.8 size=N/A time=00:00:00.62 bitrate=N/A    frame=   33 fps=2.9 q=24.8 size=N/A time=00:00:00.66 bitrate=N/A    frame=   36 fps=2.9 q=24.8 size=N/A time=00:00:00.72 bitrate=N/A    frame=   38 fps=2.9 q=24.8 size=N/A time=00:00:00.76 bitrate=N/A    frame=   40 fps=2.9 q=24.8 size=N/A time=00:00:00.80 bitrate=N/A    frame=   42 fps=2.9 q=24.8 size=N/A time=00:00:00.84 bitrate=N/A    frame=   44 fps=2.9 q=24.8 size=N/A time=00:00:00.88 bitrate=N/A    frame=   46 fps=2.9 q=24.8 size=N/A time=00:00:00.92 bitrate=N/A    frame=   48 fps=2.9 q=24.8 size=N/A time=00:00:00.96 bitrate=N/A    frame=   50 fps=3.0 q=24.8 size=N/A time=00:00:01.00 bitrate=N/A    frame=   53 fps=3.0 q=24.8 size=N/A time=00:00:01.06 bitrate=N/A    frame=   55 fps=3.0 q=24.8 size=N/A time=00:00:01.10 bitrate=N/A    frame=   57 fps=3.0 q=24.8 size=N/A time=00:00:01.14 bitrate=N/A    frame=   59 fps=3.0 q=24.8 size=N/A time=00:00:01.18 bitrate=N/A    frame=   61 fps=3.0 q=24.8 size=N/A time=00:00:01.22 bitrate=N/A    frame=   63 fps=3.0 q=24.8 size=N/A time=00:00:01.26 bitrate=N/A    frame=   65 fps=3.0 q=24.8 size=N/A time=00:00:01.30 bitrate=N/A    frame=   67 fps=3.1 q=24.8 size=N/A time=00:00:01.34 bitrate=N/A    frame=   69 fps=3.1 q=24.8 size=N/A time=00:00:01.38 bitrate=N/A    frame=   71 fps=3.0 q=24.8 size=N/A time=00:00:01.42 bitrate=N/A    frame=   73 fps=3.1 q=24.8 size=N/A time=00:00:01.46 bitrate=N/A    frame=   75 fps=3.1 q=24.8 size=N/A time=00:00:01.50 bitrate=N/A    frame=   77 fps=3.1 q=24.8 size=N/A time=00:00:01.54 bitrate=N/A    frame=   79 fps=3.1 q=24.8 size=N/A time=00:00:01.58 bitrate=N/A    frame=   81 fps=3.1 q=24.8 size=N/A time=00:00:01.62 bitrate=N/A    frame=   83 fps=3.1 q=24.8 size=N/A time=00:00:01.66 bitrate=N/A    frame=   85 fps=3.1 q=24.8 size=N/A time=00:00:01.70 bitrate=N/A    frame=   88 fps=3.1 q=24.8 size=N/A time=00:00:01.76 bitrate=N/A    frame=   90 fps=3.1 q=24.8 size=N/A time=00:00:01.80 bitrate=N/A    frame=   93 fps=3.2 q=24.8 size=N/A time=00:00:01.86 bitrate=N/A    frame=   96 fps=3.2 q=24.8 size=N/A time=00:00:01.92 bitrate=N/A    frame=   99 fps=3.3 q=24.8 size=N/A time=00:00:01.98 bitrate=N/A    frame=  101 fps=3.3 q=24.8 size=N/A time=00:00:02.02 bitrate=N/A    frame=  103 fps=3.3 q=24.8 size=N/A time=00:00:02.06 bitrate=N/A    frame=  105 fps=3.3 q=24.8 size=N/A time=00:00:02.10 bitrate=N/A    frame=  107 fps=3.3 q=24.8 size=N/A time=00:00:02.14 bitrate=N/A    frame=  109 fps=3.3 q=24.8 size=N/A time=00:00:02.18 bitrate=N/A    frame=  111 fps=3.3 q=24.8 size=N/A time=00:00:02.22 bitrate=N/A    frame=  113 fps=3.3 q=24.8 size=N/A time=00:00:02.26 bitrate=N/A    frame=  115 fps=3.3 q=24.8 size=N/A time=00:00:02.30 bitrate=N/A    frame=  117 fps=3.3 q=24.8 size=N/A time=00:00:02.34 bitrate=N/A    frame=  119 fps=3.2 q=24.8 size=N/A time=00:00:02.38 bitrate=N/A    frame=  121 fps=3.2 q=24.8 size=N/A time=00:00:02.42 bitrate=N/A    frame=  123 fps=3.2 q=24.8 size=N/A time=00:00:02.46 bitrate=N/A    frame=  125 fps=3.3 q=24.8 size=N/A time=00:00:02.50 bitrate=N/A    frame=  127 fps=3.2 q=24.8 size=N/A time=00:00:02.54 bitrate=N/A    frame=  129 fps=3.2 q=24.8 size=N/A time=00:00:02.58 bitrate=N/A    frame=  131 fps=3.3 q=24.8 size=N/A time=00:00:02.62 bitrate=N/A    frame=  133 fps=3.2 q=24.8 size=N/A time=00:00:02.66 bitrate=N/A    frame=  135 fps=3.2 q=24.8 size=N/A time=00:00:02.70 bitrate=N/A    frame=  138 fps=3.2 q=24.8 size=N/A time=00:00:02.76 bitrate=N/A    frame=  140 fps=3.2 q=24.8 size=N/A time=00:00:02.80 bitrate=N/A    frame=  142 fps=3.2 q=24.8 size=N/A time=00:00:02.84 bitrate=N/A    frame=  145 fps=3.2 q=24.8 size=N/A time=00:00:02.90 bitrate=N/A    frame=  147 fps=3.2 q=24.8 size=N/A time=00:00:02.94 bitrate=N/A    frame=  149 fps=3.2 q=24.8 size=N/A time=00:00:02.98 bitrate=N/A    frame=  151 fps=3.2 q=24.8 size=N/A time=00:00:03.02 bitrate=N/A    frame=  153 fps=3.2 q=24.8 size=N/A time=00:00:03.06 bitrate=N/A    frame=  155 fps=3.2 q=24.8 size=N/A time=00:00:03.10 bitrate=N/A    frame=  157 fps=3.2 q=24.8 size=N/A time=00:00:03.14 bitrate=N/A    frame=  159 fps=3.3 q=24.8 size=N/A time=00:00:03.18 bitrate=N/A    frame=  161 fps=3.3 q=24.8 size=N/A time=00:00:03.22 bitrate=N/A    frame=  163 fps=3.3 q=24.8 size=N/A time=00:00:03.26 bitrate=N/A    frame=  166 fps=3.3 q=24.8 size=N/A time=00:00:03.32 bitrate=N/A    frame=  169 fps=3.3 q=24.8 size=N/A time=00:00:03.38 bitrate=N/A    frame=  171 fps=3.3 q=24.8 size=N/A time=00:00:03.42 bitrate=N/A    frame=  173 fps=3.3 q=24.8 size=N/A time=00:00:03.46 bitrate=N/A    frame=  175 fps=3.3 q=24.8 size=N/A time=00:00:03.50 bitrate=N/A    frame=  177 fps=3.3 q=24.8 size=N/A time=00:00:03.54 bitrate=N/A    frame=  179 fps=3.3 q=24.8 size=N/A time=00:00:03.58 bitrate=N/A    frame=  181 fps=3.3 q=24.8 size=N/A time=00:00:03.62 bitrate=N/A    frame=  183 fps=3.3 q=24.8 size=N/A time=00:00:03.66 bitrate=N/A    frame=  185 fps=3.3 q=24.8 size=N/A time=00:00:03.70 bitrate=N/A    frame=  187 fps=3.3 q=24.8 size=N/A time=00:00:03.74 bitrate=N/A    frame=  189 fps=3.3 q=24.8 size=N/A time=00:00:03.78 bitrate=N/A    frame=  192 fps=3.3 q=24.8 size=N/A time=00:00:03.84 bitrate=N/A    frame=  194 fps=3.3 q=24.8 size=N/A time=00:00:03.88 bitrate=N/A    frame=  196 fps=3.3 q=24.8 size=N/A time=00:00:03.92 bitrate=N/A    frame=  198 fps=3.3 q=24.8 size=N/A time=00:00:03.96 bitrate=N/A    frame=  200 fps=3.3 q=24.8 size=N/A time=00:00:04.00 bitrate=N/A    frame=  202 fps=3.3 q=24.8 size=N/A time=00:00:04.04 bitrate=N/A    frame=  205 fps=3.3 q=24.8 size=N/A time=00:00:04.10 bitrate=N/A    frame=  208 fps=3.3 q=24.8 size=N/A time=00:00:04.16 bitrate=N/A    frame=  210 fps=3.3 q=24.8 size=N/A time=00:00:04.20 bitrate=N/A    frame=  212 fps=3.3 q=24.8 size=N/A time=00:00:04.24 bitrate=N/A    frame=  214 fps=3.3 q=24.8 size=N/A time=00:00:04.28 bitrate=N/A    frame=  216 fps=3.3 q=24.8 size=N/A time=00:00:04.32 bitrate=N/A    frame=  218 fps=3.3 q=24.8 size=N/A time=00:00:04.36 bitrate=N/A    frame=  220 fps=3.3 q=24.8 size=N/A time=00:00:04.40 bitrate=N/A    frame=  222 fps=3.3 q=24.8 size=N/A time=00:00:04.44 bitrate=N/A    frame=  224 fps=3.3 q=24.8 size=N/A time=00:00:04.48 bitrate=N/A    frame=  226 fps=3.3 q=24.8 size=N/A time=00:00:04.52 bitrate=N/A    frame=  228 fps=3.3 q=24.8 size=N/A time=00:00:04.56 bitrate=N/A    frame=  230 fps=3.3 q=24.8 size=N/A time=00:00:04.60 bitrate=N/A    frame=  232 fps=3.3 q=24.8 size=N/A time=00:00:04.64 bitrate=N/A    frame=  234 fps=3.3 q=24.8 size=N/A time=00:00:04.68 bitrate=N/A    frame=  236 fps=3.3 q=24.8 size=N/A time=00:00:04.72 bitrate=N/A    frame=  238 fps=3.3 q=24.8 size=N/A time=00:00:04.76 bitrate=N/A    frame=  240 fps=3.3 q=24.8 size=N/A time=00:00:04.80 bitrate=N/A    frame=  242 fps=3.3 q=24.8 size=N/A time=00:00:04.84 bitrate=N/A    frame=  244 fps=3.3 q=24.8 size=N/A time=00:00:04.88 bitrate=N/A    frame=  246 fps=3.3 q=24.8 size=N/A time=00:00:04.92 bitrate=N/A    frame=  248 fps=3.3 q=24.8 size=N/A time=00:00:04.96 bitrate=N/A    frame=  250 fps=3.4 q=24.8 size=N/A time=00:00:05.00 bitrate=N/A    frame=  252 fps=3.3 q=24.8 size=N/A time=00:00:05.04 bitrate=N/A    frame=  254 fps=3.4 q=24.8 size=N/A time=00:00:05.08 bitrate=N/A    frame=  256 fps=3.4 q=24.8 size=N/A time=00:00:05.12 bitrate=N/A    frame=  259 fps=3.4 q=24.8 size=N/A time=00:00:05.18 bitrate=N/A    frame=  261 fps=3.4 q=24.8 size=N/A time=00:00:05.22 bitrate=N/A    frame=  264 fps=3.4 q=24.8 size=N/A time=00:00:05.28 bitrate=N/A    frame=  266 fps=3.4 q=24.8 size=N/A time=00:00:05.32 bitrate=N/A    frame=  268 fps=3.4 q=24.8 size=N/A time=00:00:05.36 bitrate=N/A    frame=  270 fps=3.3 q=24.8 size=N/A time=00:00:05.40 bitrate=N/A    frame=  272 fps=3.4 q=24.8 size=N/A time=00:00:05.44 bitrate=N/A    frame=  274 fps=3.4 q=24.8 size=N/A time=00:00:05.48 bitrate=N/A    frame=  276 fps=3.4 q=24.8 size=N/A time=00:00:05.52 bitrate=N/A    frame=  278 fps=3.4 q=24.8 size=N/A time=00:00:05.56 bitrate=N/A    frame=  280 fps=3.4 q=24.8 size=N/A time=00:00:05.60 bitrate=N/A    frame=  282 fps=3.4 q=24.8 size=N/A time=00:00:05.64 bitrate=N/A    frame=  284 fps=3.3 q=24.8 size=N/A time=00:00:05.68 bitrate=N/A    frame=  286 fps=3.4 q=24.8 size=N/A time=00:00:05.72 bitrate=N/A    frame=  288 fps=3.4 q=24.8 size=N/A time=00:00:05.76 bitrate=N/A    frame=  290 fps=3.4 q=24.8 size=N/A time=00:00:05.80 bitrate=N/A    frame=  292 fps=3.4 q=24.8 size=N/A time=00:00:05.84 bitrate=N/A    frame=  294 fps=3.4 q=24.8 size=N/A time=00:00:05.88 bitrate=N/A    frame=  296 fps=3.4 q=24.8 size=N/A time=00:00:05.92 bitrate=N/A    frame=  298 fps=3.4 q=24.8 size=N/A time=00:00:05.96 bitrate=N/A    frame=  300 fps=3.4 q=24.8 size=N/A time=00:00:06.00 bitrate=N/A    frame=  302 fps=3.4 q=24.8 size=N/A time=00:00:06.04 bitrate=N/A    frame=  304 fps=3.4 q=24.8 size=N/A time=00:00:06.08 bitrate=N/A    frame=  306 fps=3.4 q=24.8 size=N/A time=00:00:06.12 bitrate=N/A    frame=  308 fps=3.4 q=24.8 size=N/A time=00:00:06.16 bitrate=N/A    frame=  311 fps=3.4 q=24.8 size=N/A time=00:00:06.22 bitrate=N/A    frame=  313 fps=3.4 q=24.8 size=N/A time=00:00:06.26 bitrate=N/A    frame=  316 fps=3.4 q=24.8 size=N/A time=00:00:06.32 bitrate=N/A    frame=  319 fps=3.4 q=24.8 size=N/A time=00:00:06.38 bitrate=N/A    frame=  321 fps=3.4 q=24.8 size=N/A time=00:00:06.42 bitrate=N/A    frame=  324 fps=3.4 q=24.8 size=N/A time=00:00:06.48 bitrate=N/A    frame=  326 fps=3.4 q=24.8 size=N/A time=00:00:06.52 bitrate=N/A    frame=  328 fps=3.4 q=24.8 size=N/A time=00:00:06.56 bitrate=N/A    frame=  330 fps=3.4 q=24.8 size=N/A time=00:00:06.60 bitrate=N/A    frame=  332 fps=3.4 q=24.8 size=N/A time=00:00:06.64 bitrate=N/A    frame=  334 fps=3.4 q=24.8 size=N/A time=00:00:06.68 bitrate=N/A    frame=  336 fps=3.4 q=24.8 size=N/A time=00:00:06.72 bitrate=N/A    frame=  338 fps=3.4 q=24.8 size=N/A time=00:00:06.76 bitrate=N/A    frame=  340 fps=3.4 q=24.8 size=N/A time=00:00:06.80 bitrate=N/A    frame=  343 fps=3.4 q=24.8 size=N/A time=00:00:06.86 bitrate=N/A    frame=  345 fps=3.4 q=24.8 size=N/A time=00:00:06.90 bitrate=N/A    frame=  347 fps=3.4 q=24.8 size=N/A time=00:00:06.94 bitrate=N/A    frame=  349 fps=3.4 q=24.8 size=N/A time=00:00:06.98 bitrate=N/A    frame=  351 fps=3.4 q=24.8 size=N/A time=00:00:07.02 bitrate=N/A    frame=  353 fps=3.4 q=24.8 size=N/A time=00:00:07.06 bitrate=N/A    frame=  355 fps=3.4 q=24.8 size=N/A time=00:00:07.10 bitrate=N/A    frame=  357 fps=3.4 q=24.8 size=N/A time=00:00:07.14 bitrate=N/A    frame=  359 fps=3.4 q=24.8 size=N/A time=00:00:07.18 bitrate=N/A    frame=  361 fps=3.4 q=24.8 size=N/A time=00:00:07.22 bitrate=N/A    frame=  363 fps=3.4 q=24.8 size=N/A time=00:00:07.26 bitrate=N/A    frame=  365 fps=3.4 q=24.8 size=N/A time=00:00:07.30 bitrate=N/A    frame=  367 fps=3.4 q=24.8 size=N/A time=00:00:07.34 bitrate=N/A    frame=  369 fps=3.4 q=24.8 size=N/A time=00:00:07.38 bitrate=N/A    frame=  372 fps=3.4 q=24.8 size=N/A time=00:00:07.44 bitrate=N/A    frame=  374 fps=3.4 q=24.8 size=N/A time=00:00:07.48 bitrate=N/A    frame=  377 fps=3.4 q=24.8 size=N/A time=00:00:07.54 bitrate=N/A    frame=  379 fps=3.4 q=24.8 size=N/A time=00:00:07.58 bitrate=N/A    frame=  381 fps=3.4 q=24.8 size=N/A time=00:00:07.62 bitrate=N/A    frame=  383 fps=3.4 q=24.8 size=N/A time=00:00:07.66 bitrate=N/A    frame=  385 fps=3.4 q=24.8 size=N/A time=00:00:07.70 bitrate=N/A    frame=  387 fps=3.4 q=24.8 size=N/A time=00:00:07.74 bitrate=N/A    frame=  389 fps=3.4 q=24.8 size=N/A time=00:00:07.78 bitrate=N/A    frame=  392 fps=3.4 q=24.8 size=N/A time=00:00:07.84 bitrate=N/A    frame=  395 fps=3.4 q=24.8 size=N/A time=00:00:07.90 bitrate=N/A    frame=  398 fps=3.4 q=24.8 size=N/A time=00:00:07.96 bitrate=N/A    frame=  401 fps=3.4 q=24.8 size=N/A time=00:00:08.02 bitrate=N/A    frame=  403 fps=3.4 q=24.8 size=N/A time=00:00:08.06 bitrate=N/A    frame=  405 fps=3.4 q=24.8 size=N/A time=00:00:08.10 bitrate=N/A    frame=  407 fps=3.4 q=24.8 size=N/A time=00:00:08.14 bitrate=N/A    frame=  409 fps=3.4 q=24.8 size=N/A time=00:00:08.18 bitrate=N/A    frame=  411 fps=3.4 q=24.8 size=N/A time=00:00:08.22 bitrate=N/A    frame=  413 fps=3.4 q=24.8 size=N/A time=00:00:08.26 bitrate=N/A    frame=  415 fps=3.4 q=24.8 size=N/A time=00:00:08.30 bitrate=N/A    frame=  418 fps=3.4 q=24.8 size=N/A time=00:00:08.36 bitrate=N/A    frame=  420 fps=3.4 q=24.8 size=N/A time=00:00:08.40 bitrate=N/A    frame=  422 fps=3.4 q=24.8 size=N/A time=00:00:08.44 bitrate=N/A    frame=  424 fps=3.4 q=24.8 size=N/A time=00:00:08.48 bitrate=N/A    frame=  426 fps=3.4 q=24.8 size=N/A time=00:00:08.52 bitrate=N/A    frame=  428 fps=3.4 q=24.8 size=N/A time=00:00:08.56 bitrate=N/A    frame=  430 fps=3.4 q=24.8 size=N/A time=00:00:08.60 bitrate=N/A    frame=  433 fps=3.4 q=24.8 size=N/A time=00:00:08.66 bitrate=N/A    frame=  436 fps=3.4 q=24.8 size=N/A time=00:00:08.72 bitrate=N/A    frame=  439 fps=3.4 q=24.8 size=N/A time=00:00:08.78 bitrate=N/A    frame=  442 fps=3.4 q=24.8 size=N/A time=00:00:08.84 bitrate=N/A    frame=  444 fps=3.4 q=24.8 size=N/A time=00:00:08.88 bitrate=N/A    frame=  447 fps=3.4 q=24.8 size=N/A time=00:00:08.94 bitrate=N/A    frame=  449 fps=3.4 q=24.8 size=N/A time=00:00:08.98 bitrate=N/A    frame=  451 fps=3.4 q=24.8 size=N/A time=00:00:09.02 bitrate=N/A    frame=  454 fps=3.4 q=24.8 size=N/A time=00:00:09.08 bitrate=N/A    frame=  456 fps=3.4 q=24.8 size=N/A time=00:00:09.12 bitrate=N/A    frame=  458 fps=3.4 q=24.8 size=N/A time=00:00:09.16 bitrate=N/A    frame=  460 fps=3.4 q=24.8 size=N/A time=00:00:09.20 bitrate=N/A    frame=  462 fps=3.4 q=24.8 size=N/A time=00:00:09.24 bitrate=N/A    frame=  465 fps=3.4 q=24.8 size=N/A time=00:00:09.30 bitrate=N/A    frame=  467 fps=3.4 q=24.8 size=N/A time=00:00:09.34 bitrate=N/A    frame=  470 fps=3.4 q=24.8 size=N/A time=00:00:09.40 bitrate=N/A    frame=  472 fps=3.4 q=24.8 size=N/A time=00:00:09.44 bitrate=N/A    frame=  474 fps=3.4 q=24.8 size=N/A time=00:00:09.48 bitrate=N/A    frame=  476 fps=3.4 q=24.8 size=N/A time=00:00:09.52 bitrate=N/A    frame=  479 fps=3.4 q=24.8 size=N/A time=00:00:09.58 bitrate=N/A    frame=  481 fps=3.4 q=24.8 size=N/A time=00:00:09.62 bitrate=N/A    frame=  483 fps=3.4 q=24.8 size=N/A time=00:00:09.66 bitrate=N/A    frame=  485 fps=3.4 q=24.8 size=N/A time=00:00:09.70 bitrate=N/A    frame=  487 fps=3.4 q=24.8 size=N/A time=00:00:09.74 bitrate=N/A    frame=  489 fps=3.4 q=24.8 size=N/A time=00:00:09.78 bitrate=N/A    frame=  491 fps=3.4 q=24.8 size=N/A time=00:00:09.82 bitrate=N/A    frame=  493 fps=3.5 q=24.8 size=N/A time=00:00:09.86 bitrate=N/A    frame=  495 fps=3.5 q=24.8 size=N/A time=00:00:09.90 bitrate=N/A    frame=  497 fps=3.5 q=24.8 size=N/A time=00:00:09.94 bitrate=N/A    frame=  499 fps=3.5 q=24.8 size=N/A time=00:00:09.98 bitrate=N/A    frame=  501 fps=3.5 q=24.8 size=N/A time=00:00:10.02 bitrate=N/A    frame=  504 fps=3.5 q=24.8 size=N/A time=00:00:10.08 bitrate=N/A    frame=  506 fps=3.5 q=24.8 size=N/A time=00:00:10.12 bitrate=N/A    frame=  508 fps=3.5 q=24.8 size=N/A time=00:00:10.16 bitrate=N/A    frame=  510 fps=3.5 q=24.8 size=N/A time=00:00:10.20 bitrate=N/A    frame=  512 fps=3.5 q=24.8 size=N/A time=00:00:10.24 bitrate=N/A    frame=  514 fps=3.5 q=24.8 size=N/A time=00:00:10.28 bitrate=N/A    frame=  516 fps=3.5 q=24.8 size=N/A time=00:00:10.32 bitrate=N/A    frame=  518 fps=3.5 q=24.8 size=N/A time=00:00:10.36 bitrate=N/A    frame=  520 fps=3.5 q=24.8 size=N/A time=00:00:10.40 bitrate=N/A    frame=  523 fps=3.5 q=24.8 size=N/A time=00:00:10.46 bitrate=N/A    frame=  526 fps=3.5 q=24.8 size=N/A time=00:00:10.52 bitrate=N/A    frame=  529 fps=3.5 q=24.8 size=N/A time=00:00:10.58 bitrate=N/A    frame=  531 fps=3.5 q=24.8 size=N/A time=00:00:10.62 bitrate=N/A    frame=  533 fps=3.5 q=24.8 size=N/A time=00:00:10.66 bitrate=N/A    frame=  535 fps=3.5 q=24.8 size=N/A time=00:00:10.70 bitrate=N/A    frame=  537 fps=3.5 q=24.8 size=N/A time=00:00:10.74 bitrate=N/A    frame=  539 fps=3.5 q=24.8 size=N/A time=00:00:10.78 bitrate=N/A    frame=  542 fps=3.5 q=24.8 size=N/A time=00:00:10.84 bitrate=N/A    frame=  544 fps=3.5 q=24.8 size=N/A time=00:00:10.88 bitrate=N/A    frame=  547 fps=3.5 q=24.8 size=N/A time=00:00:10.94 bitrate=N/A    frame=  550 fps=3.5 q=24.8 size=N/A time=00:00:11.00 bitrate=N/A    frame=  553 fps=3.5 q=24.8 size=N/A time=00:00:11.06 bitrate=N/A    frame=  555 fps=3.5 q=24.8 size=N/A time=00:00:11.10 bitrate=N/A    frame=  557 fps=3.5 q=24.8 size=N/A time=00:00:11.14 bitrate=N/A    frame=  559 fps=3.5 q=24.8 size=N/A time=00:00:11.18 bitrate=N/A    frame=  561 fps=3.5 q=24.8 size=N/A time=00:00:11.22 bitrate=N/A    frame=  563 fps=3.5 q=24.8 size=N/A time=00:00:11.26 bitrate=N/A    frame=  565 fps=3.5 q=24.8 size=N/A time=00:00:11.30 bitrate=N/A    frame=  567 fps=3.5 q=24.8 size=N/A time=00:00:11.34 bitrate=N/A    frame=  569 fps=3.5 q=24.8 size=N/A time=00:00:11.38 bitrate=N/A    frame=  571 fps=3.5 q=24.8 size=N/A time=00:00:11.42 bitrate=N/A    frame=  573 fps=3.5 q=24.8 size=N/A time=00:00:11.46 bitrate=N/A    frame=  575 fps=3.5 q=24.8 size=N/A time=00:00:11.50 bitrate=N/A    frame=  577 fps=3.5 q=24.8 size=N/A time=00:00:11.54 bitrate=N/A    frame=  579 fps=3.5 q=24.8 size=N/A time=00:00:11.58 bitrate=N/A    frame=  581 fps=3.5 q=24.8 size=N/A time=00:00:11.62 bitrate=N/A    frame=  583 fps=3.5 q=24.8 size=N/A time=00:00:11.66 bitrate=N/A    frame=  585 fps=3.5 q=24.8 size=N/A time=00:00:11.70 bitrate=N/A    frame=  587 fps=3.5 q=24.8 size=N/A time=00:00:11.74 bitrate=N/A    frame=  589 fps=3.5 q=24.8 size=N/A time=00:00:11.78 bitrate=N/A    frame=  591 fps=3.5 q=24.8 size=N/A time=00:00:11.82 bitrate=N/A    frame=  594 fps=3.5 q=24.8 size=N/A time=00:00:11.88 bitrate=N/A    frame=  596 fps=3.5 q=24.8 size=N/A time=00:00:11.92 bitrate=N/A    frame=  598 fps=3.5 q=24.8 size=N/A time=00:00:11.96 bitrate=N/A    frame=  601 fps=3.5 q=24.8 size=N/A time=00:00:12.02 bitrate=N/A    frame=  603 fps=3.5 q=24.8 size=N/A time=00:00:12.06 bitrate=N/A    frame=  606 fps=3.5 q=24.8 size=N/A time=00:00:12.12 bitrate=N/A    frame=  608 fps=3.5 q=24.8 size=N/A time=00:00:12.16 bitrate=N/A    frame=  610 fps=3.5 q=24.8 size=N/A time=00:00:12.20 bitrate=N/A    frame=  613 fps=3.5 q=24.8 size=N/A time=00:00:12.26 bitrate=N/A    frame=  616 fps=3.5 q=24.8 size=N/A time=00:00:12.32 bitrate=N/A    frame=  619 fps=3.5 q=24.8 size=N/A time=00:00:12.38 bitrate=N/A    frame=  621 fps=3.5 q=24.8 size=N/A time=00:00:12.42 bitrate=N/A    frame=  623 fps=3.5 q=24.8 size=N/A time=00:00:12.46 bitrate=N/A    frame=  625 fps=3.5 q=24.8 size=N/A time=00:00:12.50 bitrate=N/A    frame=  627 fps=3.5 q=24.8 size=N/A time=00:00:12.54 bitrate=N/A    frame=  629 fps=3.5 q=24.8 size=N/A time=00:00:12.58 bitrate=N/A    frame=  631 fps=3.5 q=24.8 size=N/A time=00:00:12.62 bitrate=N/A    frame=  633 fps=3.5 q=24.8 size=N/A time=00:00:12.66 bitrate=N/A    frame=  635 fps=3.5 q=24.8 size=N/A time=00:00:12.70 bitrate=N/A    frame=  637 fps=3.5 q=24.8 size=N/A time=00:00:12.74 bitrate=N/A    frame=  639 fps=3.5 q=24.8 size=N/A time=00:00:12.78 bitrate=N/A    frame=  641 fps=3.5 q=24.8 size=N/A time=00:00:12.82 bitrate=N/A    frame=  643 fps=3.5 q=24.8 size=N/A time=00:00:12.86 bitrate=N/A    frame=  645 fps=3.5 q=24.8 size=N/A time=00:00:12.90 bitrate=N/A    frame=  648 fps=3.5 q=24.8 size=N/A time=00:00:12.96 bitrate=N/A    frame=  650 fps=3.5 q=24.8 size=N/A time=00:00:13.00 bitrate=N/A    frame=  653 fps=3.5 q=24.8 size=N/A time=00:00:13.06 bitrate=N/A    frame=  656 fps=3.5 q=24.8 size=N/A time=00:00:13.12 bitrate=N/A    frame=  658 fps=3.5 q=24.8 size=N/A time=00:00:13.16 bitrate=N/A    frame=  660 fps=3.5 q=24.8 size=N/A time=00:00:13.20 bitrate=N/A    frame=  662 fps=3.5 q=24.8 size=N/A time=00:00:13.24 bitrate=N/A    frame=  664 fps=3.5 q=24.8 size=N/A time=00:00:13.28 bitrate=N/A    frame=  666 fps=3.5 q=24.8 size=N/A time=00:00:13.32 bitrate=N/A    frame=  668 fps=3.5 q=24.8 size=N/A time=00:00:13.36 bitrate=N/A    frame=  670 fps=3.5 q=24.8 size=N/A time=00:00:13.40 bitrate=N/A    frame=  672 fps=3.5 q=24.8 size=N/A time=00:00:13.44 bitrate=N/A    frame=  674 fps=3.5 q=24.8 size=N/A time=00:00:13.48 bitrate=N/A    frame=  676 fps=3.5 q=24.8 size=N/A time=00:00:13.52 bitrate=N/A    frame=  678 fps=3.5 q=24.8 size=N/A time=00:00:13.56 bitrate=N/A    frame=  680 fps=3.5 q=24.8 size=N/A time=00:00:13.60 bitrate=N/A    frame=  682 fps=3.5 q=24.8 size=N/A time=00:00:13.64 bitrate=N/A    frame=  684 fps=3.5 q=24.8 size=N/A time=00:00:13.68 bitrate=N/A    frame=  687 fps=3.5 q=24.8 size=N/A time=00:00:13.74 bitrate=N/A    frame=  689 fps=3.5 q=24.8 size=N/A time=00:00:13.78 bitrate=N/A    frame=  691 fps=3.5 q=24.8 size=N/A time=00:00:13.82 bitrate=N/A    frame=  693 fps=3.5 q=24.8 size=N/A time=00:00:13.86 bitrate=N/A    frame=  695 fps=3.5 q=24.8 size=N/A time=00:00:13.90 bitrate=N/A    frame=  697 fps=3.5 q=24.8 size=N/A time=00:00:13.94 bitrate=N/A    frame=  699 fps=3.5 q=24.8 size=N/A time=00:00:13.98 bitrate=N/A    frame=  701 fps=3.5 q=24.8 size=N/A time=00:00:14.02 bitrate=N/A    frame=  703 fps=3.5 q=24.8 size=N/A time=00:00:14.06 bitrate=N/A    frame=  705 fps=3.5 q=24.8 size=N/A time=00:00:14.10 bitrate=N/A    frame=  707 fps=3.5 q=24.8 size=N/A time=00:00:14.14 bitrate=N/A    frame=  709 fps=3.5 q=24.8 size=N/A time=00:00:14.18 bitrate=N/A    frame=  711 fps=3.5 q=24.8 size=N/A time=00:00:14.22 bitrate=N/A    frame=  713 fps=3.5 q=24.8 size=N/A time=00:00:14.26 bitrate=N/A    frame=  715 fps=3.5 q=24.8 size=N/A time=00:00:14.30 bitrate=N/A    frame=  717 fps=3.5 q=24.8 size=N/A time=00:00:14.34 bitrate=N/A    frame=  719 fps=3.5 q=24.8 size=N/A time=00:00:14.38 bitrate=N/A    frame=  721 fps=3.5 q=24.8 size=N/A time=00:00:14.42 bitrate=N/A    frame=  723 fps=3.5 q=24.8 size=N/A time=00:00:14.46 bitrate=N/A    frame=  725 fps=3.5 q=24.8 size=N/A time=00:00:14.50 bitrate=N/A    frame=  727 fps=3.5 q=24.8 size=N/A time=00:00:14.54 bitrate=N/A    frame=  729 fps=3.5 q=24.8 size=N/A time=00:00:14.58 bitrate=N/A    frame=  731 fps=3.5 q=24.8 size=N/A time=00:00:14.62 bitrate=N/A    frame=  733 fps=3.5 q=24.8 size=N/A time=00:00:14.66 bitrate=N/A    frame=  735 fps=3.5 q=24.8 size=N/A time=00:00:14.70 bitrate=N/A    frame=  737 fps=3.5 q=24.8 size=N/A time=00:00:14.74 bitrate=N/A    frame=  740 fps=3.5 q=24.8 size=N/A time=00:00:14.80 bitrate=N/A    frame=  743 fps=3.5 q=24.8 size=N/A time=00:00:14.86 bitrate=N/A    frame=  745 fps=3.5 q=24.8 size=N/A time=00:00:14.90 bitrate=N/A    frame=  747 fps=3.5 q=24.8 size=N/A time=00:00:14.94 bitrate=N/A    frame=  749 fps=3.5 q=24.8 size=N/A time=00:00:14.98 bitrate=N/A    frame=  751 fps=3.5 q=24.8 size=N/A time=00:00:15.02 bitrate=N/A    frame=  753 fps=3.5 q=24.8 size=N/A time=00:00:15.06 bitrate=N/A    frame=  755 fps=3.5 q=24.8 size=N/A time=00:00:15.10 bitrate=N/A    frame=  757 fps=3.5 q=24.8 size=N/A time=00:00:15.14 bitrate=N/A    frame=  759 fps=3.5 q=24.8 size=N/A time=00:00:15.18 bitrate=N/A    frame=  761 fps=3.5 q=24.8 size=N/A time=00:00:15.22 bitrate=N/A    frame=  763 fps=3.5 q=24.8 size=N/A time=00:00:15.26 bitrate=N/A    frame=  765 fps=3.5 q=24.8 size=N/A time=00:00:15.30 bitrate=N/A    frame=  767 fps=3.5 q=24.8 size=N/A time=00:00:15.34 bitrate=N/A    frame=  770 fps=3.5 q=24.8 size=N/A time=00:00:15.40 bitrate=N/A    frame=  772 fps=3.5 q=24.8 size=N/A time=00:00:15.44 bitrate=N/A    frame=  775 fps=3.5 q=24.8 size=N/A time=00:00:15.50 bitrate=N/A    frame=  777 fps=3.5 q=24.8 size=N/A time=00:00:15.54 bitrate=N/A    frame=  779 fps=3.5 q=24.8 size=N/A time=00:00:15.58 bitrate=N/A    frame=  782 fps=3.5 q=24.8 size=N/A time=00:00:15.64 bitrate=N/A    frame=  784 fps=3.5 q=24.8 size=N/A time=00:00:15.68 bitrate=N/A    frame=  786 fps=3.5 q=24.8 size=N/A time=00:00:15.72 bitrate=N/A    frame=  788 fps=3.5 q=24.8 size=N/A time=00:00:15.76 bitrate=N/A    frame=  790 fps=3.5 q=24.8 size=N/A time=00:00:15.80 bitrate=N/A    frame=  792 fps=3.5 q=24.8 size=N/A time=00:00:15.84 bitrate=N/A    frame=  794 fps=3.5 q=24.8 size=N/A time=00:00:15.88 bitrate=N/A    frame=  796 fps=3.5 q=24.8 size=N/A time=00:00:15.92 bitrate=N/A    frame=  798 fps=3.5 q=24.8 size=N/A time=00:00:15.96 bitrate=N/A    frame=  800 fps=3.5 q=24.8 size=N/A time=00:00:16.00 bitrate=N/A    frame=  802 fps=3.5 q=24.8 size=N/A time=00:00:16.04 bitrate=N/A    frame=  804 fps=3.5 q=24.8 size=N/A time=00:00:16.08 bitrate=N/A    frame=  806 fps=3.5 q=24.8 size=N/A time=00:00:16.12 bitrate=N/A    frame=  808 fps=3.5 q=24.8 size=N/A time=00:00:16.16 bitrate=N/A    frame=  810 fps=3.5 q=24.8 size=N/A time=00:00:16.20 bitrate=N/A    frame=  812 fps=3.5 q=24.8 size=N/A time=00:00:16.24 bitrate=N/A    frame=  814 fps=3.5 q=24.8 size=N/A time=00:00:16.28 bitrate=N/A    frame=  816 fps=3.5 q=24.8 size=N/A time=00:00:16.32 bitrate=N/A    frame=  818 fps=3.5 q=24.8 size=N/A time=00:00:16.36 bitrate=N/A    frame=  820 fps=3.5 q=24.8 size=N/A time=00:00:16.40 bitrate=N/A    frame=  822 fps=3.5 q=24.8 size=N/A time=00:00:16.44 bitrate=N/A    frame=  824 fps=3.5 q=24.8 size=N/A time=00:00:16.48 bitrate=N/A    frame=  826 fps=3.5 q=24.8 size=N/A time=00:00:16.52 bitrate=N/A    frame=  828 fps=3.5 q=24.8 size=N/A time=00:00:16.56 bitrate=N/A    frame=  830 fps=3.5 q=24.8 size=N/A time=00:00:16.60 bitrate=N/A    frame=  832 fps=3.5 q=24.8 size=N/A time=00:00:16.64 bitrate=N/A    frame=  834 fps=3.5 q=24.8 size=N/A time=00:00:16.68 bitrate=N/A    frame=  836 fps=3.5 q=24.8 size=N/A time=00:00:16.72 bitrate=N/A    frame=  838 fps=3.5 q=24.8 size=N/A time=00:00:16.76 bitrate=N/A    frame=  840 fps=3.5 q=24.8 size=N/A time=00:00:16.80 bitrate=N/A    frame=  842 fps=3.5 q=24.8 size=N/A time=00:00:16.84 bitrate=N/A    frame=  844 fps=3.5 q=24.8 size=N/A time=00:00:16.88 bitrate=N/A    frame=  846 fps=3.5 q=24.8 size=N/A time=00:00:16.92 bitrate=N/A    frame=  848 fps=3.5 q=24.8 size=N/A time=00:00:16.96 bitrate=N/A    frame=  850 fps=3.5 q=24.8 size=N/A time=00:00:17.00 bitrate=N/A    frame=  852 fps=3.5 q=24.8 size=N/A time=00:00:17.04 bitrate=N/A    frame=  854 fps=3.4 q=24.8 size=N/A time=00:00:17.08 bitrate=N/A    frame=  856 fps=3.4 q=24.8 size=N/A time=00:00:17.12 bitrate=N/A    frame=  858 fps=3.4 q=24.8 size=N/A time=00:00:17.16 bitrate=N/A    frame=  860 fps=3.4 q=24.8 size=N/A time=00:00:17.20 bitrate=N/A    frame=  862 fps=3.4 q=24.8 size=N/A time=00:00:17.24 bitrate=N/A    frame=  864 fps=3.4 q=24.8 size=N/A time=00:00:17.28 bitrate=N/A    frame=  866 fps=3.4 q=24.8 size=N/A time=00:00:17.32 bitrate=N/A    frame=  868 fps=3.4 q=24.8 size=N/A time=00:00:17.36 bitrate=N/A    frame=  870 fps=3.4 q=24.8 size=N/A time=00:00:17.40 bitrate=N/A    frame=  872 fps=3.4 q=24.8 size=N/A time=00:00:17.44 bitrate=N/A    frame=  874 fps=3.4 q=24.8 size=N/A time=00:00:17.48 bitrate=N/A    frame=  876 fps=3.4 q=24.8 size=N/A time=00:00:17.52 bitrate=N/A    frame=  878 fps=3.4 q=24.8 size=N/A time=00:00:17.56 bitrate=N/A    frame=  880 fps=3.4 q=24.8 size=N/A time=00:00:17.60 bitrate=N/A    frame=  882 fps=3.4 q=24.8 size=N/A time=00:00:17.64 bitrate=N/A    frame=  884 fps=3.4 q=24.8 size=N/A time=00:00:17.68 bitrate=N/A    frame=  886 fps=3.4 q=24.8 size=N/A time=00:00:17.72 bitrate=N/A    frame=  888 fps=3.4 q=24.8 size=N/A time=00:00:17.76 bitrate=N/A    frame=  890 fps=3.4 q=24.8 size=N/A time=00:00:17.80 bitrate=N/A    frame=  892 fps=3.4 q=24.8 size=N/A time=00:00:17.84 bitrate=N/A    frame=  894 fps=3.4 q=24.8 size=N/A time=00:00:17.88 bitrate=N/A    frame=  896 fps=3.4 q=24.8 size=N/A time=00:00:17.92 bitrate=N/A    frame=  898 fps=3.4 q=24.8 size=N/A time=00:00:17.96 bitrate=N/A    frame=  900 fps=3.4 q=24.8 size=N/A time=00:00:18.00 bitrate=N/A    frame=  902 fps=3.4 q=24.8 size=N/A time=00:00:18.04 bitrate=N/A    frame=  904 fps=3.4 q=24.8 size=N/A time=00:00:18.08 bitrate=N/A    frame=  906 fps=3.4 q=24.8 size=N/A time=00:00:18.12 bitrate=N/A    frame=  908 fps=3.4 q=24.8 size=N/A time=00:00:18.16 bitrate=N/A    frame=  910 fps=3.4 q=24.8 size=N/A time=00:00:18.20 bitrate=N/A    frame=  912 fps=3.4 q=24.8 size=N/A time=00:00:18.24 bitrate=N/A    frame=  914 fps=3.4 q=24.8 size=N/A time=00:00:18.28 bitrate=N/A    frame=  916 fps=3.4 q=24.8 size=N/A time=00:00:18.32 bitrate=N/A    frame=  918 fps=3.4 q=24.8 size=N/A time=00:00:18.36 bitrate=N/A    frame=  920 fps=3.4 q=24.8 size=N/A time=00:00:18.40 bitrate=N/A    frame=  922 fps=3.4 q=24.8 size=N/A time=00:00:18.44 bitrate=N/A    frame=  924 fps=3.4 q=24.8 size=N/A time=00:00:18.48 bitrate=N/A    frame=  926 fps=3.4 q=24.8 size=N/A time=00:00:18.52 bitrate=N/A    frame=  928 fps=3.4 q=24.8 size=N/A time=00:00:18.56 bitrate=N/A    frame=  930 fps=3.4 q=24.8 size=N/A time=00:00:18.60 bitrate=N/A    frame=  932 fps=3.4 q=24.8 size=N/A time=00:00:18.64 bitrate=N/A    frame=  934 fps=3.4 q=24.8 size=N/A time=00:00:18.68 bitrate=N/A    frame=  936 fps=3.4 q=24.8 size=N/A time=00:00:18.72 bitrate=N/A    frame=  938 fps=3.3 q=24.8 size=N/A time=00:00:18.76 bitrate=N/A    frame=  940 fps=3.3 q=24.8 size=N/A time=00:00:18.80 bitrate=N/A    frame=  942 fps=3.3 q=24.8 size=N/A time=00:00:18.84 bitrate=N/A    frame=  944 fps=3.3 q=24.8 size=N/A time=00:00:18.88 bitrate=N/A    frame=  946 fps=3.3 q=24.8 size=N/A time=00:00:18.92 bitrate=N/A    frame=  948 fps=3.3 q=24.8 size=N/A time=00:00:18.96 bitrate=N/A    frame=  950 fps=3.3 q=24.8 size=N/A time=00:00:19.00 bitrate=N/A    frame=  952 fps=3.3 q=24.8 size=N/A time=00:00:19.04 bitrate=N/A    frame=  954 fps=3.3 q=24.8 size=N/A time=00:00:19.08 bitrate=N/A    frame=  956 fps=3.3 q=24.8 size=N/A time=00:00:19.12 bitrate=N/A    frame=  958 fps=3.3 q=24.8 size=N/A time=00:00:19.16 bitrate=N/A    frame=  960 fps=3.3 q=24.8 size=N/A time=00:00:19.20 bitrate=N/A    frame=  962 fps=3.3 q=24.8 size=N/A time=00:00:19.24 bitrate=N/A    frame=  964 fps=3.3 q=24.8 size=N/A time=00:00:19.28 bitrate=N/A    frame=  966 fps=3.3 q=24.8 size=N/A time=00:00:19.32 bitrate=N/A    frame=  968 fps=3.3 q=24.8 size=N/A time=00:00:19.36 bitrate=N/A    frame=  970 fps=3.3 q=24.8 size=N/A time=00:00:19.40 bitrate=N/A    frame=  972 fps=3.3 q=24.8 size=N/A time=00:00:19.44 bitrate=N/A    frame=  974 fps=3.3 q=24.8 size=N/A time=00:00:19.48 bitrate=N/A    frame=  976 fps=3.3 q=24.8 size=N/A time=00:00:19.52 bitrate=N/A    frame=  978 fps=3.3 q=24.8 size=N/A time=00:00:19.56 bitrate=N/A    frame=  980 fps=3.3 q=24.8 size=N/A time=00:00:19.60 bitrate=N/A    frame=  982 fps=3.3 q=24.8 size=N/A time=00:00:19.64 bitrate=N/A    frame=  984 fps=3.3 q=24.8 size=N/A time=00:00:19.68 bitrate=N/A    frame=  986 fps=3.3 q=24.8 size=N/A time=00:00:19.72 bitrate=N/A    frame=  988 fps=3.3 q=24.8 size=N/A time=00:00:19.76 bitrate=N/A    frame=  990 fps=3.3 q=24.8 size=N/A time=00:00:19.80 bitrate=N/A    frame=  992 fps=3.3 q=24.8 size=N/A time=00:00:19.84 bitrate=N/A    frame=  994 fps=3.3 q=24.8 size=N/A time=00:00:19.88 bitrate=N/A    frame=  997 fps=3.3 q=24.8 size=N/A time=00:00:19.94 bitrate=N/A    frame=  999 fps=3.3 q=24.8 size=N/A time=00:00:19.98 bitrate=N/A    frame= 1001 fps=3.3 q=24.8 size=N/A time=00:00:20.02 bitrate=N/A    frame= 1003 fps=3.3 q=24.8 size=N/A time=00:00:20.06 bitrate=N/A    frame= 1004 fps=3.3 q=24.8 size=N/A time=00:00:20.08 bitrate=N/A    frame= 1006 fps=3.3 q=24.8 size=N/A time=00:00:20.12 bitrate=N/A    frame= 1008 fps=3.3 q=24.8 size=N/A time=00:00:20.16 bitrate=N/A    frame= 1010 fps=3.3 q=24.8 size=N/A time=00:00:20.20 bitrate=N/A    frame= 1012 fps=3.3 q=24.8 size=N/A time=00:00:20.24 bitrate=N/A    frame= 1014 fps=3.3 q=24.8 size=N/A time=00:00:20.28 bitrate=N/A    frame= 1016 fps=3.3 q=24.8 size=N/A time=00:00:20.32 bitrate=N/A    frame= 1018 fps=3.3 q=24.8 size=N/A time=00:00:20.36 bitrate=N/A    frame= 1020 fps=3.3 q=24.8 size=N/A time=00:00:20.40 bitrate=N/A    frame= 1022 fps=3.3 q=24.8 size=N/A time=00:00:20.44 bitrate=N/A    frame= 1024 fps=3.3 q=24.8 size=N/A time=00:00:20.48 bitrate=N/A    frame= 1026 fps=3.3 q=24.8 size=N/A time=00:00:20.52 bitrate=N/A    frame= 1028 fps=3.2 q=24.8 size=N/A time=00:00:20.56 bitrate=N/A    frame= 1029 fps=3.2 q=24.8 size=N/A time=00:00:20.58 bitrate=N/A    frame= 1031 fps=3.2 q=24.8 size=N/A time=00:00:20.62 bitrate=N/A    frame= 1033 fps=3.2 q=24.8 size=N/A time=00:00:20.66 bitrate=N/A    frame= 1035 fps=3.2 q=24.8 size=N/A time=00:00:20.70 bitrate=N/A    frame= 1038 fps=3.2 q=24.8 size=N/A time=00:00:20.76 bitrate=N/A    frame= 1040 fps=3.2 q=24.8 size=N/A time=00:00:20.80 bitrate=N/A    frame= 1042 fps=3.2 q=24.8 size=N/A time=00:00:20.84 bitrate=N/A    frame= 1044 fps=3.2 q=24.8 size=N/A time=00:00:20.88 bitrate=N/A    frame= 1046 fps=3.2 q=24.8 size=N/A time=00:00:20.92 bitrate=N/A    frame= 1048 fps=3.2 q=24.8 size=N/A time=00:00:20.96 bitrate=N/A    frame= 1050 fps=3.2 q=24.8 size=N/A time=00:00:21.00 bitrate=N/A    frame= 1052 fps=3.2 q=24.8 size=N/A time=00:00:21.04 bitrate=N/A    frame= 1054 fps=3.2 q=24.8 size=N/A time=00:00:21.08 bitrate=N/A    frame= 1056 fps=3.2 q=24.8 size=N/A time=00:00:21.12 bitrate=N/A    frame= 1058 fps=3.2 q=24.8 size=N/A time=00:00:21.16 bitrate=N/A    frame= 1060 fps=3.2 q=24.8 size=N/A time=00:00:21.20 bitrate=N/A    frame= 1062 fps=3.2 q=24.8 size=N/A time=00:00:21.24 bitrate=N/A    frame= 1064 fps=3.2 q=24.8 size=N/A time=00:00:21.28 bitrate=N/A    frame= 1066 fps=3.2 q=24.8 size=N/A time=00:00:21.32 bitrate=N/A    frame= 1068 fps=3.2 q=24.8 size=N/A time=00:00:21.36 bitrate=N/A    frame= 1070 fps=3.2 q=24.8 size=N/A time=00:00:21.40 bitrate=N/A    frame= 1072 fps=3.2 q=24.8 size=N/A time=00:00:21.44 bitrate=N/A    frame= 1074 fps=3.2 q=24.8 size=N/A time=00:00:21.48 bitrate=N/A    frame= 1076 fps=3.2 q=24.8 size=N/A time=00:00:21.52 bitrate=N/A    frame= 1078 fps=3.2 q=24.8 size=N/A time=00:00:21.56 bitrate=N/A    frame= 1080 fps=3.2 q=24.8 size=N/A time=00:00:21.60 bitrate=N/A    frame= 1082 fps=3.2 q=24.8 size=N/A time=00:00:21.64 bitrate=N/A    frame= 1084 fps=3.2 q=24.8 size=N/A time=00:00:21.68 bitrate=N/A    frame= 1086 fps=3.2 q=24.8 size=N/A time=00:00:21.72 bitrate=N/A    frame= 1088 fps=3.2 q=24.8 size=N/A time=00:00:21.76 bitrate=N/A    frame= 1090 fps=3.2 q=24.8 size=N/A time=00:00:21.80 bitrate=N/A    frame= 1092 fps=3.2 q=24.8 size=N/A time=00:00:21.84 bitrate=N/A    frame= 1094 fps=3.2 q=24.8 size=N/A time=00:00:21.88 bitrate=N/A    frame= 1096 fps=3.2 q=24.8 size=N/A time=00:00:21.92 bitrate=N/A    frame= 1098 fps=3.2 q=24.8 size=N/A time=00:00:21.96 bitrate=N/A    frame= 1101 fps=3.2 q=24.8 size=N/A time=00:00:22.02 bitrate=N/A    frame= 1103 fps=3.2 q=24.8 size=N/A time=00:00:22.06 bitrate=N/A    frame= 1105 fps=3.2 q=24.8 size=N/A time=00:00:22.10 bitrate=N/A    frame= 1107 fps=3.2 q=24.8 size=N/A time=00:00:22.14 bitrate=N/A    frame= 1109 fps=3.2 q=24.8 size=N/A time=00:00:22.18 bitrate=N/A    frame= 1111 fps=3.2 q=24.8 size=N/A time=00:00:22.22 bitrate=N/A    frame= 1113 fps=3.2 q=24.8 size=N/A time=00:00:22.26 bitrate=N/A    frame= 1114 fps=3.2 q=24.8 size=N/A time=00:00:22.28 bitrate=N/A    frame= 1116 fps=3.2 q=24.8 size=N/A time=00:00:22.32 bitrate=N/A    frame= 1117 fps=3.2 q=24.8 size=N/A time=00:00:22.34 bitrate=N/A    frame= 1118 fps=3.2 q=24.8 size=N/A time=00:00:22.36 bitrate=N/A    frame= 1120 fps=3.2 q=24.8 size=N/A time=00:00:22.40 bitrate=N/A    frame= 1122 fps=3.2 q=24.8 size=N/A time=00:00:22.44 bitrate=N/A    frame= 1124 fps=3.2 q=24.8 size=N/A time=00:00:22.48 bitrate=N/A    frame= 1126 fps=3.2 q=24.8 size=N/A time=00:00:22.52 bitrate=N/A    frame= 1128 fps=3.2 q=24.8 size=N/A time=00:00:22.56 bitrate=N/A    frame= 1130 fps=3.1 q=24.8 size=N/A time=00:00:22.60 bitrate=N/A    frame= 1132 fps=3.1 q=24.8 size=N/A time=00:00:22.64 bitrate=N/A    frame= 1134 fps=3.1 q=24.8 size=N/A time=00:00:22.68 bitrate=N/A    frame= 1136 fps=3.1 q=24.8 size=N/A time=00:00:22.72 bitrate=N/A    frame= 1138 fps=3.1 q=24.8 size=N/A time=00:00:22.76 bitrate=N/A    frame= 1140 fps=3.1 q=24.8 size=N/A time=00:00:22.80 bitrate=N/A    frame= 1142 fps=3.1 q=24.8 size=N/A time=00:00:22.84 bitrate=N/A    frame= 1144 fps=3.1 q=24.8 size=N/A time=00:00:22.88 bitrate=N/A    frame= 1146 fps=3.1 q=24.8 size=N/A time=00:00:22.92 bitrate=N/A    frame= 1148 fps=3.1 q=24.8 size=N/A time=00:00:22.96 bitrate=N/A    frame= 1150 fps=3.1 q=24.8 size=N/A time=00:00:23.00 bitrate=N/A    frame= 1152 fps=3.1 q=24.8 size=N/A time=00:00:23.04 bitrate=N/A    frame= 1154 fps=3.1 q=24.8 size=N/A time=00:00:23.08 bitrate=N/A    frame= 1156 fps=3.1 q=24.8 size=N/A time=00:00:23.12 bitrate=N/A    frame= 1158 fps=3.1 q=24.8 size=N/A time=00:00:23.16 bitrate=N/A    frame= 1160 fps=3.1 q=24.8 size=N/A time=00:00:23.20 bitrate=N/A    frame= 1162 fps=3.1 q=24.8 size=N/A time=00:00:23.24 bitrate=N/A    frame= 1164 fps=3.1 q=24.8 size=N/A time=00:00:23.28 bitrate=N/A    frame= 1166 fps=3.1 q=24.8 size=N/A time=00:00:23.32 bitrate=N/A    frame= 1168 fps=3.1 q=24.8 size=N/A time=00:00:23.36 bitrate=N/A    frame= 1170 fps=3.1 q=24.8 size=N/A time=00:00:23.40 bitrate=N/A    frame= 1172 fps=3.1 q=24.8 size=N/A time=00:00:23.44 bitrate=N/A    frame= 1174 fps=3.1 q=24.8 size=N/A time=00:00:23.48 bitrate=N/A    frame= 1176 fps=3.1 q=24.8 size=N/A time=00:00:23.52 bitrate=N/A    frame= 1177 fps=3.1 q=24.8 size=N/A time=00:00:23.54 bitrate=N/A    frame= 1179 fps=3.1 q=24.8 size=N/A time=00:00:23.58 bitrate=N/A    frame= 1181 fps=3.1 q=24.8 size=N/A time=00:00:23.62 bitrate=N/A    frame= 1183 fps=3.1 q=24.8 size=N/A time=00:00:23.66 bitrate=N/A    frame= 1185 fps=3.1 q=24.8 size=N/A time=00:00:23.70 bitrate=N/A    frame= 1187 fps=3.1 q=24.8 size=N/A time=00:00:23.74 bitrate=N/A    frame= 1189 fps=3.1 q=24.8 size=N/A time=00:00:23.78 bitrate=N/A    frame= 1191 fps=3.1 q=24.8 size=N/A time=00:00:23.82 bitrate=N/A    frame= 1193 fps=3.1 q=24.8 size=N/A time=00:00:23.86 bitrate=N/A    frame= 1195 fps=3.1 q=24.8 size=N/A time=00:00:23.90 bitrate=N/A    frame= 1197 fps=3.1 q=24.8 size=N/A time=00:00:23.94 bitrate=N/A    frame= 1199 fps=3.1 q=24.8 size=N/A time=00:00:23.98 bitrate=N/A    frame= 1201 fps=3.1 q=24.8 size=N/A time=00:00:24.02 bitrate=N/A    frame= 1203 fps=3.1 q=24.8 size=N/A time=00:00:24.06 bitrate=N/A    frame= 1205 fps=3.1 q=24.8 size=N/A time=00:00:24.10 bitrate=N/A    frame= 1207 fps=3.1 q=24.8 size=N/A time=00:00:24.14 bitrate=N/A    frame= 1209 fps=3.1 q=24.8 size=N/A time=00:00:24.18 bitrate=N/A    frame= 1211 fps=3.1 q=24.8 size=N/A time=00:00:24.22 bitrate=N/A    frame= 1213 fps=3.1 q=24.8 size=N/A time=00:00:24.26 bitrate=N/A    frame= 1215 fps=3.1 q=24.8 size=N/A time=00:00:24.30 bitrate=N/A    frame= 1217 fps=3.1 q=24.8 size=N/A time=00:00:24.34 bitrate=N/A    frame= 1219 fps=3.1 q=24.8 size=N/A time=00:00:24.38 bitrate=N/A    frame= 1221 fps=3.1 q=24.8 size=N/A time=00:00:24.42 bitrate=N/A    frame= 1223 fps=3.1 q=24.8 size=N/A time=00:00:24.46 bitrate=N/A    frame= 1225 fps=3.1 q=24.8 size=N/A time=00:00:24.50 bitrate=N/A    frame= 1227 fps=3.1 q=24.8 size=N/A time=00:00:24.54 bitrate=N/A    frame= 1229 fps=3.1 q=24.8 size=N/A time=00:00:24.58 bitrate=N/A    frame= 1231 fps=3.1 q=24.8 size=N/A time=00:00:24.62 bitrate=N/A    frame= 1233 fps=3.1 q=24.8 size=N/A time=00:00:24.66 bitrate=N/A    frame= 1235 fps=3.1 q=24.8 size=N/A time=00:00:24.70 bitrate=N/A    frame= 1237 fps=3.1 q=24.8 size=N/A time=00:00:24.74 bitrate=N/A    frame= 1239 fps=3.1 q=24.8 size=N/A time=00:00:24.78 bitrate=N/A    frame= 1241 fps=3.1 q=24.8 size=N/A time=00:00:24.82 bitrate=N/A    frame= 1243 fps=3.1 q=24.8 size=N/A time=00:00:24.86 bitrate=N/A    frame= 1245 fps=3.1 q=24.8 size=N/A time=00:00:24.90 bitrate=N/A    frame= 1247 fps=3.1 q=24.8 size=N/A time=00:00:24.94 bitrate=N/A    frame= 1249 fps=3.1 q=24.8 size=N/A time=00:00:24.98 bitrate=N/A    frame= 1251 fps=3.1 q=24.8 size=N/A time=00:00:25.02 bitrate=N/A    frame= 1253 fps=3.1 q=24.8 size=N/A time=00:00:25.06 bitrate=N/A    frame= 1255 fps=3.1 q=24.8 size=N/A time=00:00:25.10 bitrate=N/A    frame= 1257 fps=3.1 q=24.8 size=N/A time=00:00:25.14 bitrate=N/A    frame= 1258 fps=3.1 q=24.8 size=N/A time=00:00:25.16 bitrate=N/A    frame= 1260 fps=3.0 q=24.8 size=N/A time=00:00:25.20 bitrate=N/A    frame= 1262 fps=3.0 q=24.8 size=N/A time=00:00:25.24 bitrate=N/A    frame= 1264 fps=3.0 q=24.8 size=N/A time=00:00:25.28 bitrate=N/A    frame= 1266 fps=3.0 q=24.8 size=N/A time=00:00:25.32 bitrate=N/A    frame= 1268 fps=3.0 q=24.8 size=N/A time=00:00:25.36 bitrate=N/A    frame= 1270 fps=3.0 q=24.8 size=N/A time=00:00:25.40 bitrate=N/A    frame= 1272 fps=3.0 q=24.8 size=N/A time=00:00:25.44 bitrate=N/A    frame= 1274 fps=3.0 q=24.8 size=N/A time=00:00:25.48 bitrate=N/A    frame= 1276 fps=3.0 q=24.8 size=N/A time=00:00:25.52 bitrate=N/A    frame= 1278 fps=3.0 q=24.8 size=N/A time=00:00:25.56 bitrate=N/A    frame= 1280 fps=3.0 q=24.8 size=N/A time=00:00:25.60 bitrate=N/A    frame= 1282 fps=3.0 q=24.8 size=N/A time=00:00:25.64 bitrate=N/A    frame= 1284 fps=3.0 q=24.8 size=N/A time=00:00:25.68 bitrate=N/A    frame= 1286 fps=3.0 q=24.8 size=N/A time=00:00:25.72 bitrate=N/A    frame= 1288 fps=3.0 q=24.8 size=N/A time=00:00:25.76 bitrate=N/A    frame= 1289 fps=3.0 q=24.8 size=N/A time=00:00:25.78 bitrate=N/A    frame= 1291 fps=3.0 q=24.8 size=N/A time=00:00:25.82 bitrate=N/A    frame= 1293 fps=3.0 q=24.8 size=N/A time=00:00:25.86 bitrate=N/A    frame= 1295 fps=3.0 q=24.8 size=N/A time=00:00:25.90 bitrate=N/A    frame= 1297 fps=3.0 q=24.8 size=N/A time=00:00:25.94 bitrate=N/A    frame= 1299 fps=3.0 q=24.8 size=N/A time=00:00:25.98 bitrate=N/A    frame= 1301 fps=3.0 q=24.8 size=N/A time=00:00:26.02 bitrate=N/A    frame= 1303 fps=3.0 q=24.8 size=N/A time=00:00:26.06 bitrate=N/A    frame= 1305 fps=3.0 q=24.8 size=N/A time=00:00:26.10 bitrate=N/A    frame= 1307 fps=3.0 q=24.8 size=N/A time=00:00:26.14 bitrate=N/A    frame= 1309 fps=3.0 q=24.8 size=N/A time=00:00:26.18 bitrate=N/A    frame= 1311 fps=3.0 q=24.8 size=N/A time=00:00:26.22 bitrate=N/A    frame= 1313 fps=3.0 q=24.8 size=N/A time=00:00:26.26 bitrate=N/A    frame= 1314 fps=3.0 q=24.8 size=N/A time=00:00:26.28 bitrate=N/A    frame= 1316 fps=3.0 q=24.8 size=N/A time=00:00:26.32 bitrate=N/A    frame= 1318 fps=3.0 q=24.8 size=N/A time=00:00:26.36 bitrate=N/A    frame= 1320 fps=3.0 q=24.8 size=N/A time=00:00:26.40 bitrate=N/A    frame= 1321 fps=3.0 q=24.8 size=N/A time=00:00:26.42 bitrate=N/A    frame= 1323 fps=3.0 q=24.8 size=N/A time=00:00:26.46 bitrate=N/A    frame= 1325 fps=3.0 q=24.8 size=N/A time=00:00:26.50 bitrate=N/A    frame= 1327 fps=3.0 q=24.8 size=N/A time=00:00:26.54 bitrate=N/A    frame= 1329 fps=3.0 q=24.8 size=N/A time=00:00:26.58 bitrate=N/A    frame= 1331 fps=3.0 q=24.8 size=N/A time=00:00:26.62 bitrate=N/A    frame= 1333 fps=3.0 q=24.8 size=N/A time=00:00:26.66 bitrate=N/A    frame= 1335 fps=3.0 q=24.8 size=N/A time=00:00:26.70 bitrate=N/A    frame= 1337 fps=3.0 q=24.8 size=N/A time=00:00:26.74 bitrate=N/A    frame= 1339 fps=3.0 q=24.8 size=N/A time=00:00:26.78 bitrate=N/A    frame= 1341 fps=3.0 q=24.8 size=N/A time=00:00:26.82 bitrate=N/A    frame= 1343 fps=3.0 q=24.8 size=N/A time=00:00:26.86 bitrate=N/A    frame= 1345 fps=3.0 q=24.8 size=N/A time=00:00:26.90 bitrate=N/A    frame= 1347 fps=3.0 q=24.8 size=N/A time=00:00:26.94 bitrate=N/A    frame= 1349 fps=3.0 q=24.8 size=N/A time=00:00:26.98 bitrate=N/A    frame= 1351 fps=3.0 q=24.8 size=N/A time=00:00:27.02 bitrate=N/A    frame= 1353 fps=3.0 q=24.8 size=N/A time=00:00:27.06 bitrate=N/A    frame= 1353 fps=3.0 q=24.8 Lsize=N/A time=00:00:27.06 bitrate=N/A    
video:1317664kB audio:0kB subtitle:0kB other streams:0kB global headers:0kB muxing overhead: unknown
+ turkic load DJI_0068_30m_regi_disznoturas_homokmegy_20180603_napos_kalaszos_T4 /home/horvathandras/vatic/vatic/videos/DJI_0068_30m_regi_disznoturas_homokmegy_20180603_napos_kalaszos_T4 $'Pozit\303\255vROI' $'Negat\303\255vROI' $'T\303\272r\303\241s' '~Friss' '~1-2Hetes' '~Régebbi' '~Egyéb1' '~Egyéb2' '~Egyéb3' $'R\303\241g\303\241s' '~Friss' '~1-2Hetes' '~Régebbi' '~Egyéb1' '~Egyéb2' '~Egyéb3' $'T\303\266r\303\251s' '~Friss' '~1-2Hetes' '~Régebbi' '~Egyéb1' '~Egyéb2' '~Egyéb3' $'Tapos\303\241s' '~Friss' '~1-2Hetes' '~Régebbi' '~Egyéb1' '~Egyéb2' '~Egyéb3' $'Eg\303\251szs\303\251gesN\303\266v\303\251ny' $'Egy\303\251b1' $'Egy\303\251b2' $'Egy\303\251b3' $'Egy\303\251b4' $'Egy\303\251b5' Bizonytalan $'M\305\261vel\305\221\303\272t' $'Gktapos\303\241s' $'Vet\305\221hiba' $'Sz\303\251ld\303\266nt\303\251s' $'J\303\251gk\303\241r' $'Belv\303\255z' $'Asz\303\241ly' $'Er\303\263zi\303\263' $'Egyszik\305\261Gyom' $'K\303\251tszik\305\261Gyom' $'Egy\303\251bN\303\266vv\303\251delmiPR' --offline --title '$filenameNoDot Video' --length 1000 --description 'vatic annotation'
+ turkic publish --offline
+ mkdir /home/horvathandras/vatic/vatic/public/videothumbnails/DJI_0068_30m_regi_disznoturas_homokmegy_20180603_napos_kalaszos_T4
+ cp /home/horvathandras/vatic/vatic/videos/DJI_0068_30m_regi_disznoturas_homokmegy_20180603_napos_kalaszos_T4/0/0/31.jpg /home/horvathandras/vatic/vatic/public/videothumbnails/DJI_0068_30m_regi_disznoturas_homokmegy_20180603_napos_kalaszos_T4/thumb.jpg
